# xmcd
#
# Track frame offsets: 
#        150
#        24744
#        49083
#        64840
#        87143
#        107256
#        128522
#        154767
#        173592
#        195728
#        230455
#        266372
#        293600
#        327957
#
# Disc length: 4609 seconds
#
# Revision: 0
# Processed by: cddbd v1.5.2PL0 Copyright (c) Steve Scherf et al.
# Submitted via: ExactAudioCopy v1.0b3
#
DISCID=af11ff0e
DTITLE=Lee Child - Night School D4
DYEAR=2016
DGENRE=Soundtrack
TTITLE0=LC, NS 4, 01
TTITLE1=LC, NS 4, 02
TTITLE2=LC, NS 4, 03
TTITLE3=LC, NS 4, 04
TTITLE4=LC, NS 4, 05
TTITLE5=LC, NS 4, 06
TTITLE6=LC, NS 4, 07
TTITLE7=LC, NS 4, 08
TTITLE8=LC, NS 4, 09
TTITLE9=LC, NS 4, 10
TTITLE10=LC, NS 4, 11
TTITLE11=LC, NS 4, 12
TTITLE12=LC, NS 4, 13
TTITLE13=LC, NS 4, 14
EXTD=
EXTT0=
EXTT1=
EXTT2=
EXTT3=
EXTT4=
EXTT5=
EXTT6=
EXTT7=
EXTT8=
EXTT9=
EXTT10=
EXTT11=
EXTT12=
EXTT13=
PLAYORDER=
